<svg width="25" height="25" viewBox="0 0 25 25" fill="none" xmlns="http://www.w3.org/2000/svg">
<path d="M12.3709 16.5014C14.6513 16.5014 16.5 14.6527 16.5 12.3723C16.5 10.0918 14.6513 8.24316 12.3709 8.24316C10.0904 8.24316 8.24176 10.0918 8.24176 12.3723C8.24176 14.6527 10.0904 16.5014 12.3709 16.5014Z" fill="white"/>
<path d="M24.6813 7.3205C24.6674 6.27911 24.4724 5.24807 24.1051 4.2735C23.7866 3.45146 23.3001 2.7049 22.6767 2.08152C22.0534 1.45814 21.3068 0.971645 20.4848 0.653125C19.5227 0.291991 18.5064 0.0967193 17.479 0.0756251C16.1562 0.0165001 15.7369 0 12.3791 0C9.02138 0 8.591 9.22009e-08 7.27788 0.0756251C6.25097 0.0968743 5.2351 0.292144 4.2735 0.653125C3.45133 0.971423 2.70465 1.45784 2.08125 2.08125C1.45784 2.70465 0.971423 3.45133 0.653125 4.2735C0.291268 5.23481 0.0964193 6.2509 0.077 7.27788C0.017875 8.602 0 9.02138 0 12.3791C0 15.7369 -1.02445e-08 16.1659 0.077 17.4804C0.097625 18.5089 0.2915 19.5236 0.653125 20.4875C0.971957 21.3094 1.45873 22.0558 2.08235 22.6789C2.70597 23.3021 3.45271 23.7883 4.27487 24.1065C5.23385 24.4821 6.24989 24.6914 7.27925 24.7252C8.60338 24.7844 9.02275 24.8022 12.3805 24.8022C15.7383 24.8022 16.1686 24.8022 17.4818 24.7252C18.5091 24.705 19.5255 24.5102 20.4875 24.1491C21.3093 23.8302 22.0557 23.3436 22.679 22.7203C23.3024 22.0969 23.789 21.3506 24.1079 20.5287C24.4695 19.5662 24.6634 18.5515 24.684 17.5216C24.7431 16.1989 24.761 15.7795 24.761 12.4204C24.7582 9.06263 24.7583 8.63638 24.6813 7.3205V7.3205ZM12.3709 18.7289C8.85913 18.7289 6.01425 15.884 6.01425 12.3723C6.01425 8.8605 8.85913 6.01562 12.3709 6.01562C14.0568 6.01563 15.6736 6.68534 16.8657 7.87744C18.0578 9.06954 18.7275 10.6864 18.7275 12.3723C18.7275 14.0581 18.0578 15.675 16.8657 16.8671C15.6736 18.0592 14.0568 18.7289 12.3709 18.7289V18.7289ZM18.9805 7.26275C18.7858 7.26293 18.593 7.22472 18.4131 7.15029C18.2331 7.07586 18.0697 6.96669 17.932 6.82901C17.7943 6.69134 17.6851 6.52786 17.6107 6.34795C17.5363 6.16803 17.4981 5.9752 17.4982 5.7805C17.4982 5.58594 17.5366 5.39328 17.611 5.21353C17.6855 5.03378 17.7946 4.87045 17.9322 4.73288C18.0698 4.5953 18.2331 4.48617 18.4128 4.41171C18.5926 4.33726 18.7853 4.29894 18.9798 4.29894C19.1744 4.29894 19.367 4.33726 19.5468 4.41171C19.7265 4.48617 19.8899 4.5953 20.0274 4.73288C20.165 4.87045 20.2741 5.03378 20.3486 5.21353C20.4231 5.39328 20.4614 5.58594 20.4614 5.7805C20.4614 6.6 19.7986 7.26275 18.9805 7.26275Z" fill="white"/>
</svg>
