<svg width="25" height="25" viewBox="0 0 25 25" fill="none" xmlns="http://www.w3.org/2000/svg">
<path d="M23.375 0H1.375C1.01033 0 0.660591 0.144866 0.402728 0.402728C0.144866 0.660591 0 1.01033 0 1.375V23.375C0 23.7397 0.144866 24.0894 0.402728 24.3473C0.660591 24.6051 1.01033 24.75 1.375 24.75H13.2206V15.18H10.0059V11.4331H13.2206V8.68312C13.2206 5.48625 15.1731 3.74413 18.0331 3.74413C18.9942 3.74138 19.9567 3.79087 20.9137 3.89125V7.21875H18.9406C17.3896 7.21875 17.0871 7.9585 17.0871 9.04062V11.4263H20.7955L20.3143 15.1731H17.0857V24.75H23.375C23.7397 24.75 24.0894 24.6051 24.3473 24.3473C24.6051 24.0894 24.75 23.7397 24.75 23.375V1.375C24.75 1.01033 24.6051 0.660591 24.3473 0.402728C24.0894 0.144866 23.7397 0 23.375 0V0Z" fill="#2C1064"/>
</svg>
