<svg width="25" height="25" viewBox="0 0 25 25" fill="none" xmlns="http://www.w3.org/2000/svg">
<path d="M23.375 0H1.375C1.01033 0 0.660591 0.144866 0.402728 0.402728C0.144866 0.660591 0 1.01033 0 1.375V23.375C0 23.7397 0.144866 24.0894 0.402728 24.3473C0.660591 24.6051 1.01033 24.75 1.375 24.75H23.375C23.7397 24.75 24.0894 24.6051 24.3473 24.3473C24.6051 24.0894 24.75 23.7397 24.75 23.375V1.375C24.75 1.01033 24.6051 0.660591 24.3473 0.402728C24.0894 0.144866 23.7397 0 23.375 0V0ZM7.34112 21.0884H3.66712V9.27712H7.34112V21.0884ZM5.50412 7.66425C4.93961 7.66425 4.39822 7.44 3.99905 7.04083C3.59988 6.64166 3.37562 6.10026 3.37562 5.53575C3.37562 4.97124 3.59988 4.42984 3.99905 4.03067C4.39822 3.6315 4.93961 3.40725 5.50412 3.40725C6.06864 3.40725 6.61003 3.6315 7.0092 4.03067C7.40837 4.42984 7.63262 4.97124 7.63262 5.53575C7.63262 6.10026 7.40837 6.64166 7.0092 7.04083C6.61003 7.44 6.06864 7.66425 5.50412 7.66425V7.66425ZM21.0897 21.0884H17.4199V15.345C17.4199 13.9755 17.3951 12.2141 15.5114 12.2141C13.6001 12.2141 13.31 13.7074 13.31 15.2488V21.0897H9.64287V9.2785H13.1629V10.8927H13.2137C13.7019 9.96462 14.9009 8.98562 16.6842 8.98562C20.4022 8.98562 21.0884 11.4304 21.0884 14.6121V21.0884H21.0897Z" fill="#2C1064"/>
</svg>
