<svg width="28" height="22" viewBox="0 0 28 22" fill="none" xmlns="http://www.w3.org/2000/svg">
<path d="M24.2454 5.46975C24.2632 5.71038 24.2632 5.94963 24.2632 6.18888C24.2632 13.5108 18.6904 21.9478 8.50575 21.9478C5.368 21.9478 2.453 21.0389 0 19.4604C0.4455 19.5113 0.8745 19.5291 1.33788 19.5291C3.83074 19.5351 6.25301 18.7016 8.21425 17.1628C7.05845 17.1418 5.93804 16.7605 5.00945 16.072C4.08086 15.3835 3.39045 14.4222 3.03462 13.3224C3.377 13.3733 3.72075 13.4076 4.081 13.4076C4.57737 13.4076 5.0765 13.3389 5.53987 13.2193C4.28555 12.966 3.15765 12.2861 2.34798 11.2952C1.5383 10.3043 1.09683 9.06352 1.09863 7.78388V7.71513C1.837 8.12625 2.69362 8.38338 3.60112 8.41775C2.84087 7.91256 2.21749 7.22703 1.78659 6.42234C1.35569 5.61764 1.13068 4.7188 1.13162 3.806C1.13162 2.7775 1.40525 1.83425 1.88513 1.012C3.27682 2.7239 5.01257 4.1244 6.97996 5.12278C8.94736 6.12116 11.1025 6.69517 13.3059 6.80763C13.2206 6.39513 13.1684 5.9675 13.1684 5.5385C13.168 4.81107 13.311 4.09071 13.5892 3.41858C13.8674 2.74646 14.2754 2.13575 14.7898 1.62138C15.3041 1.10701 15.9148 0.699066 16.587 0.420858C17.2591 0.14265 17.9794 -0.000360771 18.7069 6.83462e-07C20.3019 6.83462e-07 21.7415 0.66825 22.7535 1.749C23.9934 1.50922 25.1825 1.05658 26.268 0.411125C25.8547 1.691 24.9889 2.77627 23.8329 3.46363C24.9326 3.3382 26.0073 3.049 27.0215 2.60563C26.2641 3.70989 25.3255 4.67822 24.2454 5.46975V5.46975Z" fill="#2C1064"/>
</svg>
