<svg width="72" height="12" viewBox="0 0 72 12" fill="none" xmlns="http://www.w3.org/2000/svg">
<path d="M1 5.25C0.585786 5.25 0.25 5.58579 0.25 6C0.25 6.41421 0.585786 6.75 1 6.75V5.25ZM71.5303 6.53033C71.8232 6.23744 71.8232 5.76256 71.5303 5.46967L66.7574 0.696699C66.4645 0.403806 65.9896 0.403806 65.6967 0.696699C65.4038 0.989593 65.4038 1.46447 65.6967 1.75736L69.9393 6L65.6967 10.2426C65.4038 10.5355 65.4038 11.0104 65.6967 11.3033C65.9896 11.5962 66.4645 11.5962 66.7574 11.3033L71.5303 6.53033ZM1 6.75H71V5.25H1V6.75Z" fill="white"/>
</svg>
